# xmcd CD database file
#
# Track frame offsets:
#	150
#	24862
#	55010
#	85035
#	110602
#	136040
#	163040
#	188045
#	220027
#	243548
#	266882
#	289476
#	319828
#
# Disc length: 4575 seconds
#
# Revision: 0
# Processed by: cddbd v1.5.2PL0 Copyright (c) Steve Scherf et al.
# Submitted via: CDex 1.51
#
DISCID=b511dd0d
DTITLE=Lars Gullin - vol11 - After Eight p.m.
DYEAR=1956
DGENRE=Jazz
TTITLE0=After Eight p.m.
TTITLE1=Mean to Me take 2
TTITLE2=Just Friends - Someone to Watch Over Me - Lover Man
TTITLE3=Half Nelson
TTITLE4=Primula Veris take 1
TTITLE5=Laburnum Vulgare take 1
TTITLE6=Lotus Corniculatus take 1
TTITLE7=Galium Verum take 2
TTITLE8=Perntz take 1
TTITLE9=Perntz take 2
TTITLE10=Jeepers Creepers take 1
TTITLE11=Mean to Me take 1
TTITLE12=Lover Come Back To Me take 1
EXTD=YEAR: 1956
EXTT0=
EXTT1=
EXTT2=
EXTT3=
EXTT4=
EXTT5=
EXTT6=
EXTT7=
EXTT8=
EXTT9=
EXTT10=
EXTT11=
EXTT12=
PLAYORDER=
